<svg width="72" height="72" viewBox="0 0 72 72" fill="none" xmlns="http://www.w3.org/2000/svg">
<g filter="url(#filter0_d_3_1532)">
<rect x="6" y="5" width="60" height="60" fill="#267BEE"/>
</g>
<g clip-path="url(#clip0_3_1532)">
<path d="M50 51C50 51 45.286 49.145 41.473 47.66H25.437C23.54 47.66 22 46.026 22 44.013V22.644C22 20.633 23.54 19 25.437 19H46.562C48.46 19 49.999 20.632 49.999 22.645V41.049H50V51ZM45.861 39.018C45.7861 38.9219 45.6921 38.8423 45.5848 38.7844C45.4776 38.7266 45.3595 38.6916 45.2381 38.6817C45.1166 38.6718 44.9944 38.6873 44.8792 38.7271C44.7641 38.7669 44.6584 38.8302 44.569 38.913C44.539 38.939 41.554 41.594 35.999 41.594C30.513 41.594 27.482 38.958 27.428 38.91C27.3385 38.8277 27.2329 38.7648 27.1178 38.7253C27.0027 38.6859 26.8808 38.6707 26.7595 38.6807C26.6383 38.6908 26.5205 38.7258 26.4135 38.7837C26.3066 38.8416 26.2127 38.921 26.138 39.017C25.9779 39.2167 25.8997 39.4698 25.919 39.725C25.9359 39.9789 26.0498 40.2167 26.237 40.389C26.379 40.517 29.774 43.539 35.999 43.539C42.225 43.539 45.62 40.517 45.762 40.389C45.9489 40.2165 46.0624 39.9788 46.079 39.725C46.0984 39.4702 46.0205 39.2176 45.861 39.018Z" fill="black"/>
</g>
<defs>
<filter id="filter0_d_3_1532" x="0" y="0" width="72" height="72" filterUnits="userSpaceOnUse" color-interpolation-filters="sRGB">
<feFlood flood-opacity="0" result="BackgroundImageFix"/>
<feColorMatrix in="SourceAlpha" type="matrix" values="0 0 0 0 0 0 0 0 0 0 0 0 0 0 0 0 0 0 127 0" result="hardAlpha"/>
<feOffset dy="1"/>
<feGaussianBlur stdDeviation="3"/>
<feColorMatrix type="matrix" values="0 0 0 0 0 0 0 0 0 0 0 0 0 0 0 0 0 0 0.06 0"/>
<feBlend mode="normal" in2="BackgroundImageFix" result="effect1_dropShadow_3_1532"/>
<feBlend mode="normal" in="SourceGraphic" in2="effect1_dropShadow_3_1532" result="shape"/>
</filter>
<clipPath id="clip0_3_1532">
<rect width="28" height="32" fill="white" transform="translate(22 19)"/>
</clipPath>
</defs>
</svg>
