<svg width="176" height="176" viewBox="0 0 176 176" fill="none" xmlns="http://www.w3.org/2000/svg">
<g clip-path="url(#clip0_3_1485)">
<path d="M88 176C136.601 176 176 136.601 176 88C176 39.3989 136.601 0 88 0C39.3989 0 0 39.3989 0 88C0 136.601 39.3989 176 88 176Z" fill="#FFFAE5"/>
<path d="M88 158.064C126.695 158.064 158.064 126.695 158.064 88.0002C158.064 49.3051 126.695 17.9365 88 17.9365C49.3049 17.9365 17.9363 49.3051 17.9363 88.0002C17.9363 126.695 49.3049 158.064 88 158.064Z" fill="#FEF2CD"/>
<path d="M140.127 87.9995C140.127 59.2103 116.789 35.8721 88.0001 35.8721C59.2109 35.8721 35.8727 59.2103 35.8727 87.9995C35.8727 116.789 59.2109 140.127 88.0001 140.127C116.789 140.127 140.127 116.789 140.127 87.9995Z" fill="#FAC734"/>
<path d="M87.8767 136.236C114.586 136.236 136.238 114.584 136.238 87.8754C136.238 61.1665 114.586 39.5146 87.8767 39.5146C61.1678 39.5146 39.516 61.1665 39.516 87.8754C39.516 114.584 61.1678 136.236 87.8767 136.236Z" fill="#FFF5D0" stroke="white" stroke-width="2.17"/>
<path d="M108.941 107.211C106.889 106.797 104.927 106.326 103.291 106.001L100.544 105.395L100.869 102.593C100.869 102.458 100.914 102.324 100.914 102.178C100.924 101.586 100.813 100.999 100.589 100.452L99.9388 98.9606L100.824 97.5705C101.34 96.7298 101.564 95.7881 101.564 94.7232C101.564 93.6021 101.239 92.6269 100.634 91.7861L99.5689 90.3288L100.264 88.6584C100.544 88.0083 100.679 87.3132 100.679 86.607C100.679 85.6317 100.679 82.6834 96.0713 80.9234C94.6536 80.4648 93.1776 80.2118 91.6881 80.1723L86.6996 79.8472L89.0761 75.5089C90.9819 72.0562 92.058 68.9397 92.058 66.7425C92.058 64.7359 91.4078 62.9647 89.9169 62.3706C84.7378 60.1285 81.0608 63.6149 78.4376 67.9084C76.1862 71.5827 74.088 75.3488 72.1487 79.1971C68.7408 86.3716 63.7075 91.5507 63.7075 98.7252C63.7075 105.261 68.0906 110.384 76.1059 113.097C85.9485 116.404 100.634 117.289 107.024 117.289C111.597 117.289 114.108 115.518 114.108 112.245C114.108 108.848 110.891 107.637 108.941 107.223V107.211Z" fill="#FFD338"/>
<path d="M106.889 104.333L97.0018 102.181C97.7865 101.62 98.6273 100.454 98.6273 99.0081C98.6273 97.3266 97.7417 96.3513 97.0467 95.8468C97.7337 95.3736 98.2936 94.7384 98.6768 93.9974C99.06 93.2563 99.2548 92.4323 99.2439 91.5981C99.2439 89.1319 97.5623 87.8652 96.6655 87.2598C97.1876 86.7773 97.606 86.1935 97.8951 85.544C98.1842 84.8944 98.338 84.1929 98.347 83.482C98.347 80.2647 95.8808 78.8185 93.8742 78.0338C92.2487 77.4285 89.1659 77.1931 86.4642 77.1931C82.0362 77.1931 78.023 77.5182 76.106 77.5182C73.8304 77.5182 74.1106 76.3523 74.9402 75.2761C75.4558 74.6708 81.9353 66.1398 83.1572 64.604C83.9868 63.483 84.9733 62.4068 85.7132 62.8328C86.5091 63.2476 86.184 65.2094 85.3432 67.3505C84.0877 70.7136 82.3165 72.8547 81.8905 73.6058L84.8724 75.4218C86.0382 73.9645 89.8161 67.6868 89.8161 63.6175C89.8161 61.8015 89.1211 60.2657 87.7646 59.4249C87.0521 59.0341 86.2464 58.8452 85.4344 58.8788C84.6224 58.9124 83.835 59.1671 83.1572 59.6155C82.0237 60.2994 81.0245 61.1846 80.209 62.2275C77.8772 65.2094 72.9447 71.4534 71.1287 73.7852C68.5055 77.1931 69.7274 81.3857 75.2765 81.3857C77.227 81.3857 83.6169 80.9261 86.0943 80.9261C88.9305 80.9261 90.3318 81.0606 91.307 81.2063C93.1791 81.4866 94.2441 82.3273 94.2441 83.4483C94.2441 84.2331 93.8742 84.7936 93.224 85.2532C92.5738 85.724 91.9684 86.419 91.9684 87.4055C91.9684 88.5714 93.0334 89.031 93.7397 89.5018C94.6701 90.1072 95.2306 90.522 95.2306 91.5085C95.2306 92.3941 94.5804 92.9097 93.8293 93.459C93.224 93.9299 92.4281 94.4455 92.4281 95.5105C92.4281 96.497 93.1343 96.9678 93.5939 97.3378C94.0647 97.7077 94.5804 98.1225 94.5804 98.9184C94.5804 99.7031 94.1993 100.084 93.2688 100.645C92.5289 101.06 91.4528 101.855 91.4528 102.976C91.4528 104.232 92.3384 104.793 93.4146 105.073C95.9705 105.678 103.616 107.315 106.228 107.92C107.069 108.111 107.909 108.38 107.909 109.086C107.909 109.781 106.788 110.106 105.208 110.106C99.7147 110.106 84.4128 108.985 75.411 105.869C69.3014 103.817 65.9496 100.039 65.9496 95.5105C65.9496 91.5981 68.5616 88.1118 71.3977 86.094L68.8418 83.482C64.7389 86.3294 61.9363 90.8583 61.9363 95.6114C61.9363 101.104 65.1985 106.709 74.2003 109.736C83.7626 112.954 98.2574 113.929 105.028 113.929C109.636 113.929 111.867 112.023 111.867 109.131C111.833 106.384 109.591 104.893 106.889 104.333Z" fill="#222222"/>
</g>
<defs>
<clipPath id="clip0_3_1485">
<rect width="176" height="176" fill="white"/>
</clipPath>
</defs>
</svg>
