<svg width="93" height="71" viewBox="0 0 93 71" fill="none" xmlns="http://www.w3.org/2000/svg">
<path fill-rule="evenodd" clip-rule="evenodd" d="M1.36002 12.1002C1.11232 10.6031 0.991889 9.08765 1.00002 7.57019C1.00002 6.21019 1.62002 5.09019 2.98002 4.59019C4.13002 4.19019 5.71002 5.02019 6.30002 6.51019C7.10002 8.51019 7.88002 10.5502 8.34002 12.6402C9.74002 18.9502 11.01 25.3202 12.25 31.6702C12.65 33.7702 12.93 35.9202 13.15 38.0702C13.21 38.8202 13.16 39.6202 12.91 40.2902C12.25 42.1502 10.24 42.5502 9.01002 41.0602C8.32459 40.1698 7.82782 39.149 7.55002 38.0602C6.47002 34.6402 2.33002 17.3302 1.35002 12.1002H1.36002ZM38.98 45.4802L39.02 46.9002C39.35 48.1302 40.08 48.3302 40.82 48.5402L41.06 48.6002C42.32 48.9602 43.24 48.0902 43.69 46.9102C44.1 45.8702 44.47 44.7802 44.77 43.6802L45.38 41.5302C46.12 38.9502 46.86 36.3602 47.54 33.7802C49.84 24.9302 52.05 16.0702 54.24 7.18019C54.57 5.84019 54.68 4.38019 54.54 3.03019C54.49 2.32019 53.76 1.23019 53.13 1.07019C52.28 0.870193 50.97 1.15019 50.43 1.72019C49.42 2.79019 48.63 4.19019 48.09 5.59019C43.43 17.5902 39.81 29.8602 38.98 42.7902C38.92 43.6502 38.95 44.5202 38.98 45.4802ZM86.04 69.6202L87.66 69.4402C88.1 69.2902 88.51 69.1702 88.9 69.0502C89.58 68.8502 90.2 68.6802 90.72 68.3902C92.85 67.1902 92.77 64.6702 90.57 63.6402C89.6463 63.2257 88.6423 63.0208 87.63 63.0402C78.78 63.0602 69.9 63.1302 61.03 63.2502C59.69 63.2802 58.26 63.6302 56.95 64.0202C55.01 64.5702 54.13 65.7302 54.23 67.1902C54.32 68.6602 55.25 69.7602 57.18 70.2002C58.63 70.5402 60.18 70.7602 61.68 70.7202C68.64 70.5102 75.6 70.2202 82.57 69.9502C83.75 69.9002 84.93 69.7502 86.04 69.6202Z" fill="#FFD338"/>
</svg>
